<svg aria-hidden="true" style="position:absolute;width:0;height:0" xmlns="http://www.w3.org/2000/svg" overflow="hidden">
  <defs>
    <symbol id="css3" viewBox="0 0 32 32">
      <path fill="var(--color1, #1572b6)" d="M2 0h28l-2.547 28.751L15.969 32l-11.42-3.251zm22.787 5.884L7.214 5.88l.284 3.496 13.5.003-.34 3.621h-8.853l.32 3.431h8.243l-.488 4.697L16 22.2l-3.941-1.08-.251-2.813h-3.48l.387 5.14 7.287 2.271 7.164-2.04z"/>
    </symbol>
    <symbol id="docker" viewBox="0 0 32 32">
      <path fill="var(--color2, #1488c6)" d="M6.427 23.033c-.912 0-1.739-.747-1.739-1.653s.747-1.657 1.74-1.657c.997 0 1.747.747 1.747 1.656s-.829 1.653-1.748 1.655zm21.349-9.017c-.18-1.323-1-2.4-2.08-3.227l-.42-.333-.339.413c-.659.747-.92 2.071-.84 3.06.08.749.32 1.493.739 2.072-.339.173-.757.333-1.08.503-.76.249-1.499.333-2.24.333H.129l-.08.493a9.308 9.308 0 0 0 .749 4.72l.325.58v.08c2 3.311 5.56 4.8 9.437 4.8 7.459 0 13.576-3.227 16.476-10.177 1.9.083 3.819-.413 4.72-2.235l.24-.413-.4-.249c-1.08-.659-2.56-.747-3.8-.413zm-10.677-1.323h-3.237v3.227h3.24v-3.229zm0-4.057h-3.237v3.227h3.24V8.64zm0-4.139h-3.237v3.227h3.24V4.497zm3.96 8.196H17.84v3.227h3.227v-3.229zm-11.998 0H5.844v3.227h3.229v-3.229zm4.04 0h-3.2v3.227h3.219v-3.229zm-8.04 0H1.866v3.227h3.237v-3.229zm8.04-4.057h-3.2v3.227h3.219V8.64zm-4.06 0H5.849v3.227h3.217V8.64z"/>
    </symbol>
    <symbol id="git" viewBox="0 0 32 32">
      <path fill="var(--color4, #f05032)" d="M31.395 14.573L17.423.602a2.065 2.065 0 0 0-2.917 0l-2.895 2.9 3.68 3.68a2.452 2.452 0 0 1 3.103 3.121l3.544 3.547a2.451 2.451 0 0 1 2.533 4.052 2.449 2.449 0 0 1-3.467 0 2.46 2.46 0 0 1-.539-2.661l-3.319-3.301v8.7c.235.115.456.271.651.464a2.463 2.463 0 0 1 0 3.467 2.46 2.46 0 0 1-3.479 0 2.445 2.445 0 0 1 0-3.464c.243-.24.516-.421.807-.541v-8.785a2.433 2.433 0 0 1-.8-.535 2.445 2.445 0 0 1-.528-2.679l-3.616-3.633L.6 14.509c-.8.807-.8 2.112 0 2.919l13.973 13.969a2.061 2.061 0 0 0 2.915 0L31.395 17.49a2.059 2.059 0 0 0 0-2.916z"/>
    </symbol>
    <symbol id="github" viewBox="0 0 32 32">
      <path d="M16 .396c-8.84 0-16 7.164-16 16 0 7.071 4.584 13.067 10.94 15.18.8.151 1.093-.344 1.093-.769 0-.38-.013-1.387-.02-2.72-4.451.965-5.389-2.147-5.389-2.147-.728-1.847-1.78-2.34-1.78-2.34-1.449-.992.112-.972.112-.972 1.607.112 2.451 1.648 2.451 1.648 1.427 2.447 3.745 1.74 4.66 1.331.144-1.035.556-1.74 1.013-2.14-3.553-.4-7.288-1.776-7.288-7.907 0-1.747.62-3.173 1.647-4.293-.18-.404-.72-2.031.14-4.235 0 0 1.34-.429 4.4 1.64 1.28-.356 2.64-.532 4-.54 1.36.008 2.72.184 4 .54 3.04-2.069 4.38-1.64 4.38-1.64.86 2.204.32 3.831.16 4.235 1.02 1.12 1.64 2.547 1.64 4.293 0 6.147-3.74 7.5-7.3 7.893.56.48 1.08 1.461 1.08 2.96 0 2.141-.02 3.861-.02 4.381 0 .42.28.92 1.1.76C27.42 29.455 32 23.455 32 16.395c0-8.836-7.164-16-16-16z"/>
    </symbol>
    <symbol id="gmail" viewBox="0 0 32 32">
      <path fill="var(--color5, #d14836)" d="M32 6v20c0 1.133-.867 2-2 2h-2V9.849l-12 8.617L4 9.849V28H2c-1.135 0-2-.867-2-2V6c0-.567.216-1.067.575-1.424A1.98 1.98 0 0 1 2 4h.667L16 13.667 29.333 4H30c.567 0 1.067.216 1.425.576.36.357.575.857.575 1.424z"/>
    </symbol>
    <symbol id="html5" viewBox="0 0 32 32">
      <path fill="var(--color6, #e34f26)" d="M2 0h28l-2.547 28.751L15.969 32 4.55 28.749zm9.375 13l-.309-3.624 13.412.004.307-3.496L7.217 5.88l.931 10.68h12.168l-.435 4.568-3.88 1.072-3.94-1.08-.251-2.813H8.331l.44 5.561L16 25.801l7.172-1.924.992-10.876z"/>
    </symbol>
    <symbol id="javascript" viewBox="0 0 32 32">
      <path fill="var(--color8, #f7df1e)" d="M0 0h32v32H0zm29.379 24.368c-.233-1.46-1.184-2.687-4.004-3.831-.981-.46-2.072-.78-2.396-1.52-.121-.44-.14-.68-.061-.94.2-.861 1.22-1.12 2.02-.88.52.16 1 .56 1.301 1.2 1.379-.901 1.379-.901 2.34-1.5-.36-.56-.539-.801-.781-1.04-.84-.94-1.959-1.42-3.779-1.379l-.94.119c-.901.22-1.76.7-2.28 1.34-1.52 1.721-1.081 4.721.759 5.961 1.82 1.36 4.481 1.659 4.821 2.94.32 1.56-1.16 2.06-2.621 1.88-1.081-.24-1.68-.781-2.34-1.781l-2.44 1.401c.28.64.6.919 1.08 1.479 2.32 2.341 8.12 2.221 9.161-1.339.039-.12.32-.94.099-2.2zm-11.978-9.66h-2.997c0 2.584-.012 5.152-.012 7.74 0 1.643.084 3.151-.184 3.615-.44.919-1.573.801-2.088.64-.528-.261-.796-.621-1.107-1.14-.084-.14-.147-.261-.169-.261l-2.433 1.5c.407.84 1 1.563 1.765 2.023 1.14.68 2.672.9 4.276.54 1.044-.301 1.944-.921 2.415-1.881.68-1.24.536-2.76.529-4.461.016-2.739 0-5.479 0-8.239z"/>
    </symbol>
    <symbol id="linkedin" viewBox="0 0 32 32">
      <path fill="var(--color9, #0077b5)" d="M27.263 27.269h-4.739v-7.425c0-1.771-.036-4.049-2.469-4.049-2.471 0-2.848 1.927-2.848 3.919v7.556h-4.739V12.001h4.552v2.081h.061c.636-1.2 2.183-2.467 4.493-2.467 4.801 0 5.689 3.16 5.689 7.273zM7.116 9.911a2.75 2.75 0 0 1-2.751-2.753 2.752 2.752 0 1 1 2.751 2.753zm2.376 17.358H4.74V12h4.752zM29.633 0H2.361C1.056 0 0 1.032 0 2.305v27.389c0 1.275 1.056 2.305 2.361 2.305h27.268c1.304 0 2.371-1.031 2.371-2.305V2.305C32 1.032 30.933 0 29.629 0z"/>
    </symbol>
    <symbol id="linux" viewBox="0 0 32 32">
      <path fill="var(--color10, #fcc624)" d="M16.671 0c-.207 0-.42.011-.639.028-5.636.444-4.141 6.409-4.227 8.397-.103 1.457-.4 2.605-1.401 4.028-1.18 1.401-2.836 3.667-3.621 6.028-.371 1.109-.547 2.245-.383 3.319a.57.57 0 0 0-.148.18c-.347.357-.599.801-.883 1.119-.265.265-.647.356-1.063.533-.417.181-.877.359-1.152.908a1.78 1.78 0 0 0-.176.801c0 .265.036.535.073.715.077.532.155.972.052 1.293-.331.907-.372 1.528-.14 1.98.232.445.713.625 1.252.801 1.081.267 2.547.18 3.7.799 1.235.623 2.488.895 3.488.627a2.359 2.359 0 0 0 1.611-1.26c.783-.004 1.64-.359 3.013-.445.932-.077 2.099.356 3.437.265.033.18.084.265.152.445l.004.004c.521 1.037 1.484 1.509 2.512 1.428 1.028-.08 2.123-.715 3.009-1.741.841-1.02 2.244-1.445 3.171-2.004.464-.265.839-.625.865-1.137.031-.533-.265-1.083-.952-1.836v-.129l-.004-.004c-.227-.267-.333-.713-.451-1.235-.113-.535-.243-1.048-.656-1.395h-.004c-.079-.072-.164-.089-.251-.18a.468.468 0 0 0-.253-.085c.575-1.704.352-3.4-.231-4.925-.711-1.88-1.953-3.517-2.9-4.644-1.061-1.34-2.101-2.609-2.081-4.492.036-2.869.316-8.177-4.725-8.185zm.705 4.54h.017c.284 0 .528.083.779.264.255.18.44.443.585.711.14.345.211.612.221.965 0-.027.008-.053.008-.079v.139a.097.097 0 0 1-.005-.028l-.005-.032a2.418 2.418 0 0 1-.2.941 1.28 1.28 0 0 1-.284.447 1.045 1.045 0 0 0-.117-.056c-.14-.06-.265-.085-.38-.177a1.782 1.782 0 0 0-.292-.088c.065-.079.193-.177.243-.264.071-.171.109-.352.117-.536v-.025a1.612 1.612 0 0 0-.081-.533c-.06-.18-.135-.268-.244-.445-.112-.088-.223-.176-.356-.176h-.021c-.124 0-.235.04-.349.176a1.061 1.061 0 0 0-.273.445 1.564 1.564 0 0 0-.12.533v.025c.003.119.011.239.027.356-.257-.089-.584-.18-.809-.269a2.33 2.33 0 0 1-.024-.265v-.027a2.352 2.352 0 0 1 .2-1.025c.109-.292.309-.541.573-.711.228-.172.505-.265.792-.265zm-3.949.079h.048c.189 0 .36.064.532.18.195.172.352.384.459.62.12.265.188.535.204.889v.005a1.95 1.95 0 0 1-.003.355v.107c-.04.009-.075.024-.111.032-.203.073-.365.18-.524.267.016-.119.017-.239.004-.356v-.02c-.016-.177-.052-.265-.109-.444a.815.815 0 0 0-.221-.356.327.327 0 0 0-.244-.085h-.028c-.095.008-.173.055-.248.176a.74.74 0 0 0-.16.36 1.257 1.257 0 0 0-.031.441v.019c.016.18.049.268.108.445.06.179.129.267.22.357.015.012.028.024.045.032-.093.076-.156.093-.235.181a.413.413 0 0 1-.175.091 3.554 3.554 0 0 1-.367-.536 2.363 2.363 0 0 1-.207-.889 2.341 2.341 0 0 1 .107-.891c.073-.263.203-.505.377-.713.171-.177.347-.267.557-.267zm1.828 2.274c.441 0 .976.087 1.62.532.391.267.697.359 1.404.624h.004c.34.181.54.355.637.532v-.175a.762.762 0 0 1 .021.627c-.164.415-.688.859-1.419 1.124v.003c-.357.18-.668.444-1.033.62-.368.18-.784.389-1.349.356a1.514 1.514 0 0 1-.597-.089 4.614 4.614 0 0 1-.429-.264c-.26-.18-.484-.443-.816-.62v-.007h-.007c-.533-.328-.821-.683-.915-.948-.092-.357-.007-.625.257-.8.299-.18.507-.361.644-.448.139-.099.191-.136.235-.175h.003v-.004c.225-.269.581-.625 1.119-.801.185-.048.392-.087.621-.087zm3.732 2.858c.479 1.889 1.596 4.633 2.315 5.964.381.712 1.14 2.212 1.469 4.032.208-.007.439.024.684.085.861-2.228-.728-4.623-1.452-5.288-.295-.268-.309-.447-.164-.447.785.712 1.82 2.096 2.195 3.676.172.713.212 1.472.028 2.227.089.037.18.081.273.089 1.376.712 1.884 1.251 1.64 2.049v-.057c-.081-.004-.16 0-.241 0h-.02c.201-.623-.243-1.1-1.42-1.632-1.22-.533-2.195-.448-2.361.62-.009.057-.016.088-.023.18-.091.031-.185.071-.279.085-.573.357-.883.892-1.057 1.583-.173.711-.227 1.541-.273 2.492v.004c-.028.445-.228 1.117-.425 1.801-2 1.429-4.773 2.051-7.132.445a3.538 3.538 0 0 0-.536-.711 1.919 1.919 0 0 0-.367-.445c.243 0 .451-.039.62-.089a.822.822 0 0 0 .419-.445c.144-.356 0-.929-.46-1.551-.46-.623-1.241-1.327-2.384-2.028-.84-.532-1.315-1.16-1.533-1.861-.22-.712-.191-1.447-.02-2.193.327-1.427 1.164-2.813 1.699-3.684.143-.087.049.18-.544 1.299-.528 1.001-1.521 3.329-.163 5.139.051-1.319.344-2.62.863-3.835.752-1.704 2.324-4.672 2.448-7.024.064.048.289.18.385.269.291.177.507.444.787.62.281.268.636.447 1.168.447.052.004.1.008.148.008.548 0 .972-.179 1.328-.357.387-.179.695-.445.987-.533h.007c.623-.18 1.115-.536 1.393-.933zm2.914 11.944c.049.801.457 1.66 1.176 1.836.784.179 1.912-.444 2.388-1.02l.281-.012c.42-.011.769.013 1.129.356l.004.004c.277.265.407.708.521 1.168.113.535.205 1.04.545 1.421.648.703.86 1.208.848 1.52l.004-.008v.024l-.004-.016c-.02.349-.247.528-.664.793-.84.535-2.328.949-3.276 2.093-.824.983-1.828 1.519-2.715 1.588-.885.071-1.649-.267-2.099-1.197l-.007-.004c-.28-.535-.16-1.367.075-2.253.235-.891.571-1.793.617-2.531.049-.952.101-1.78.26-2.419.16-.62.411-1.063.855-1.312zm-14.42.065h.013c.071 0 .14.007.209.019.501.073.941.444 1.364 1.003l1.213 2.219.004.004c.324.711 1.005 1.419 1.585 2.184.579.797 1.027 1.508.972 2.093v.008c-.076.992-.639 1.531-1.5 1.725-.86.18-2.027.003-3.193-.619-1.291-.715-2.824-.625-3.809-.803-.492-.088-.815-.268-.964-.535-.148-.265-.151-.801.164-1.64v-.004l.003-.004c.156-.445.04-1.004-.036-1.492-.073-.535-.111-.945.057-1.253.213-.445.528-.532.919-.711.393-.18.855-.269 1.221-.625h.003v-.004c.341-.357.593-.801.891-1.117.253-.268.507-.448.884-.448zm9.546-12.099c-.58.268-1.26.713-1.984.713-.723 0-1.293-.356-1.705-.621-.207-.179-.373-.357-.499-.447-.219-.179-.192-.445-.099-.445.145.021.172.18.265.268.128.088.287.265.481.444.388.267.907.623 1.555.623.647 0 1.404-.356 1.864-.621.26-.18.593-.445.864-.623.208-.183.199-.357.372-.357.172.021.045.179-.196.444-.241.18-.615.447-.92.624zm-1.443-2.112V7.52c-.008-.025.017-.056.039-.067.099-.057.24-.036.347.005.084 0 .213.089.2.18-.008.065-.113.088-.18.088-.073 0-.123-.057-.188-.091-.069-.024-.195-.011-.217-.087zm-.735 0c-.027.077-.151.065-.221.088-.063.033-.115.091-.185.091-.068 0-.175-.025-.183-.091-.012-.088.117-.177.2-.177.108-.041.245-.063.345-.007.025.012.048.04.04.067v.028z"/>
    </symbol>
    <symbol id="node-js" viewBox="0 0 32 32">
      <path fill="var(--color13, #393)" d="M15.997 32c-.428 0-.855-.112-1.229-.329l-3.915-2.316c-.584-.327-.299-.443-.107-.511.78-.271.937-.333 1.771-.805.087-.049.201-.031.291.023l3.008 1.785c.109.06.263.06.363 0l11.727-6.768a.37.37 0 0 0 .179-.317V9.229a.38.38 0 0 0-.183-.323L16.181 2.143a.368.368 0 0 0-.361 0L4.101 8.907a.378.378 0 0 0-.185.321v13.533c0 .129.072.252.185.313l3.212 1.856c1.743.872 2.811-.155 2.811-1.187V10.382c0-.189.152-.337.341-.337h1.487a.34.34 0 0 1 .34.337v13.361c0 2.327-1.267 3.66-3.472 3.66-.677 0-1.212 0-2.701-.735l-3.077-1.769a2.475 2.475 0 0 1-1.229-2.139V9.227c0-.879.471-1.7 1.229-2.137L14.769.314a2.567 2.567 0 0 1 2.464 0L28.958 7.09a2.475 2.475 0 0 1 1.232 2.137V22.76c0 .879-.472 1.697-1.232 2.139L17.233 31.67a2.45 2.45 0 0 1-1.233.329zm9.468-13.343c0-2.533-1.712-3.208-5.316-3.684-3.641-.481-4.012-.731-4.012-1.583 0-.704.313-1.644 3.011-1.644 2.409 0 3.297.519 3.663 2.143a.338.338 0 0 0 .329.265h1.521a.34.34 0 0 0 .337-.369c-.236-2.797-2.095-4.101-5.851-4.101-3.344 0-5.339 1.411-5.339 3.777 0 2.567 1.984 3.276 5.193 3.593 3.84.376 4.137.937 4.137 1.692 0 1.311-1.052 1.869-3.523 1.869-3.103 0-3.785-.779-4.015-2.323a.34.34 0 0 0-.337-.287h-1.516a.336.336 0 0 0-.339.337c0 1.976 1.075 4.331 6.207 4.331 3.717.001 5.848-1.461 5.848-4.017z"/>
    </symbol>
    <symbol id="postgresql" viewBox="0 0 32 32">
      <path fill="var(--color14, #336791)" d="M22.837 0c-1.312.01-2.575.206-3.769.562l.096-.024-.084.027a14.102 14.102 0 0 0-2.267-.22H16.8c-1.571-.027-2.92.355-4.008.989C11.72.962 9.496.321 7.152.449c-1.632.089-3.413.585-4.733 1.979C1.103 3.821.407 5.977.554 8.911c.04.809.271 2.129.653 3.839s.92 3.711 1.591 5.536c.671 1.827 1.405 3.467 2.553 4.581.573.559 1.363 1.028 2.293.989.653-.027 1.244-.313 1.753-.736.248.327.513.469.755.601.304.167.6.28.907.355.551.137 1.493.321 2.597.133a4.916 4.916 0 0 0 1.167-.36c.015.44.032.871.049 1.307.055 1.381.089 2.657.504 3.776.067.183.249 1.124.969 1.955.72.832 2.131 1.351 3.737 1.007 1.133-.243 2.575-.68 3.532-2.043.947-1.347 1.373-3.279 1.457-6.412.021-.169.047-.313.073-.448l.225.02h.027c1.209.055 2.521-.117 3.617-.627.971-.449 1.705-.904 2.24-1.711.133-.2.28-.441.32-.857s-.199-1.067-.595-1.367c-.793-.603-1.292-.373-1.827-.263-.476.11-1.027.18-1.592.194h-.01c1.541-2.596 2.647-5.353 3.277-7.793.373-1.44.583-2.768.6-3.929s-.077-2.189-.773-3.079C28.478.8 25.421.032 23.056.006a16.146 16.146 0 0 1-.22-.005zm-.062.853c2.237-.021 5.096.607 7.148 3.229.461.589.599 1.451.583 2.512-.017 1.06-.213 2.329-.572 3.72-.696 2.693-2.011 5.833-3.863 8.651.061.044.13.082.204.112l.007.002c.387.16 1.268.297 3.027-.064.443-.093.767-.156 1.103.1.15.128.245.317.245.529l-.001.04v-.002a.932.932 0 0 1-.175.451l.002-.003c-.34.511-1.011.995-1.871 1.393-.761.355-1.853.54-2.821.551-.485.005-.933-.032-1.313-.151l-.024-.009c-.147 1.413-.484 4.204-.704 5.477-.176 1.027-.484 1.843-1.072 2.453-.587.611-1.417.979-2.535 1.219-1.384.297-2.393-.023-3.044-.571-.649-.547-.947-1.272-1.125-1.716-.123-.307-.187-.704-.248-1.235s-.107-1.18-.137-1.912a66.129 66.129 0 0 1-.039-3.41v.046a4.072 4.072 0 0 1-2.045 1.01l-.024.004c-.919.156-1.739.003-2.228-.12a3.007 3.007 0 0 1-.709-.276l.016.008c-.227-.121-.443-.259-.587-.529a.743.743 0 0 1-.075-.513l-.001.005a.815.815 0 0 1 .289-.44l.002-.001c.264-.215.613-.335 1.14-.444.959-.197 1.293-.332 1.497-.493.173-.139.369-.419.716-.829l-.004-.051v-.004a3.923 3.923 0 0 1-1.794-.488l.02.01c-.2.211-1.221 1.291-2.467 2.789-.524.627-1.103.987-1.713 1.012-.611.027-1.163-.281-1.632-.736-.937-.911-1.685-2.477-2.337-4.248-.651-1.771-1.18-3.743-1.556-5.423-.377-1.68-.6-3.035-.632-3.688-.14-2.776.509-4.647 1.623-5.827 1.115-1.18 2.643-1.627 4.132-1.712 2.673-.153 5.212.779 5.725.979.989-.672 2.264-1.091 3.856-1.064a9.936 9.936 0 0 1 2.31.305l-.068-.015.027-.012c.257-.095.587-.194.923-.273l.062-.012A12.469 12.469 0 0 1 22.77.852h.009zm.202.894h-.195a11.72 11.72 0 0 0-2.349.27l.077-.014c1.661.736 2.916 1.869 3.8 3a11.13 11.13 0 0 1 1.481 2.487l.028.073c.147.352.245.649.301.88.028.116.047.213.053.315a.586.586 0 0 1-.016.192c0 .004-.007.013-.008.017.04 1.168-.249 1.96-.284 3.075-.027.808.18 1.757.231 2.793.048.973-.069 2.043-.701 3.092.053.064.101.128.152.192 1.672-2.633 2.877-5.547 3.52-8.031.344-1.337.527-2.549.543-3.509.013-.96-.165-1.656-.393-1.947-1.789-2.288-4.211-2.871-6.24-2.885zm-6.386.341c-1.576.004-2.707.48-3.564 1.193-.884.737-1.477 1.747-1.867 2.78-.463 1.227-.621 2.413-.684 3.219l.017-.011a6.901 6.901 0 0 1 1.771-.688c.669-.153 1.391-.201 2.044.052s1.193.849 1.389 1.753c.939 4.343-.292 5.957-.745 7.176-.144.351-.295.801-.42 1.261l-.021.09c.057-.013.115-.029.172-.035.32-.027.571.08.72.144.456.189.769.587.939 1.04.044.119.076.247.095.379a.443.443 0 0 1 .027.153v.017-.001a74.68 74.68 0 0 0 .022 5.121l-.004-.138c.031.717.076 1.349.133 1.848.057.497.139.876.191 1.004.171.427.42.985.871 1.365.451.379 1.097.632 2.279.379 1.024-.22 1.656-.525 2.079-.964.421-.439.673-1.049.835-1.984.241-1.4.727-5.46.785-6.224-.027-.576.059-1.019.243-1.356.189-.347.483-.559.736-.673.127-.057.245-.096.343-.124a7.79 7.79 0 0 0-.336-.448l.012.015a5.903 5.903 0 0 1-.873-1.427l-.015-.039c-.136-.279-.25-.49-.371-.697l.028.052c-.177-.32-.401-.72-.636-1.169-.469-.9-.98-1.991-1.245-3.053-.264-1.061-.303-2.16.375-2.935.6-.688 1.653-.973 3.235-.813-.047-.14-.075-.256-.153-.443a10.42 10.42 0 0 0-1.405-2.374l.017.022c-1.34-1.713-3.509-3.412-6.861-3.467zm-8.856.069c-.169 0-.339.005-.507.015-1.347.077-2.62.468-3.531 1.433-.912.965-1.512 2.548-1.381 5.168.025.496.241 1.885.612 3.536.369 1.651.893 3.593 1.523 5.309.631 1.716 1.395 3.209 2.12 3.916.365.353.683.496.971.484.289-.013.637-.18 1.063-.691a57.701 57.701 0 0 1 2.44-2.759l-.026.028a4.657 4.657 0 0 1-1.553-4.226l-.003.026c.137-.985.156-1.907.14-2.635-.016-.709-.067-1.181-.067-1.476v-.013-.013.001-.007l-.001-.008v-.001-.007c0-1.613.289-3.158.819-4.586l-.03.091c.373-.992.929-2 1.763-2.816-.819-.269-2.272-.68-3.845-.757a9.743 9.743 0 0 0-.505-.013h-.001zM24.265 9.2c-.905.012-1.413.245-1.68.551-.377.433-.413 1.193-.179 2.129.233.937.716 1.985 1.169 2.856.227.436.447.828.624 1.147.179.32.309.547.389.74.073.179.155.336.237.483.351-.74.413-1.467.377-2.224-.047-.937-.264-1.896-.232-2.867.036-1.135.26-1.873.28-2.751a7.528 7.528 0 0 0-.986-.064zm-10.978.153a3.791 3.791 0 0 0-.847.104l.026-.005a6.197 6.197 0 0 0-1.569.615l.031-.016c-.177.096-.33.197-.472.309l.007-.005-.029.027c.008.195.047.667.063 1.361.016.76-.003 1.729-.149 2.779-.319 2.28 1.336 4.168 3.28 4.171.113-.468.3-.943.487-1.443.541-1.459 1.607-2.523.709-6.675-.147-.68-.437-.955-.837-1.109a1.93 1.93 0 0 0-.655-.112l-.046.001h.002zm10.556.272h.067c.088.003.169.012.24.029.072.016.133.04.184.073s.088.084.1.145v.001l-.001.011v.013a.311.311 0 0 1-.048.168l.001-.001a.876.876 0 0 1-.147.2.904.904 0 0 1-.509.282l-.005.001a.787.787 0 0 1-.549-.139l.002.002a.829.829 0 0 1-.172-.156l-.001-.001a.349.349 0 0 1-.084-.167v-.002l-.001-.02c0-.058.022-.11.057-.15a.522.522 0 0 1 .153-.119l.003-.001a1.5 1.5 0 0 1 .71-.168zm-10.427.224c.071 0 .145.007.221.017.204.028.385.083.524.163a.613.613 0 0 1 .177.141l.001.001a.295.295 0 0 1 .072.228v-.001a.407.407 0 0 1-.1.206.847.847 0 0 1-.188.171l-.003.002a.846.846 0 0 1-.601.15h.004a.973.973 0 0 1-.559-.303l-.001-.001a.944.944 0 0 1-.155-.214l-.002-.005a.365.365 0 0 1-.057-.198l.002-.04v.002c.02-.144.139-.219.255-.26a1.123 1.123 0 0 1 .413-.059h-.002zm12.08 9.791l-.004.001c-.196.071-.357.1-.493.16a.61.61 0 0 0-.317.282l-.002.003c-.084.153-.156.425-.135.888a.688.688 0 0 0 .193.092l.005.001c.228.069.611.115 1.037.108.851-.009 1.897-.208 2.453-.467.481-.226.895-.5 1.263-.825l-.006.005h-.001c-1.857.384-2.907.281-3.551.016a1.769 1.769 0 0 1-.446-.268l.003.002zm-10.708.125h-.028c-.071.007-.173.031-.372.251-.464.52-.627.847-1.009 1.152-.383.304-.88.467-1.873.671a2.572 2.572 0 0 0-.615.192c.039.032.035.04.093.071.145.08.332.151.483.189.427.107 1.128.231 1.86.107.732-.125 1.493-.476 2.143-1.387.112-.157.124-.389.032-.639-.093-.249-.297-.464-.441-.524a.848.848 0 0 0-.268-.082h-.005z"/>
    </symbol>
    <symbol id="python" viewBox="0 0 32 32">
      <path fill="var(--color16, #3776ab)" d="M19.08.24l1.2.267.973.347.787.4.6.427.453.453.333.453.213.44.133.4.053.347.027.267-.013.173v7.12l-.067.84-.173.733-.28.613-.347.507-.4.413-.44.333-.467.253-.467.187-.44.133-.4.093-.347.053-.28.027h-7.96l-.92.067-.787.187-.667.293-.547.36-.44.427-.36.467-.267.48-.2.493-.133.467-.093.427-.053.36-.027.28v4.08H4.304l-.28-.04-.373-.093-.427-.16-.467-.24-.48-.347-.48-.48-.467-.613-.427-.787-.373-.973-.28-1.173-.187-1.4-.067-1.64.08-1.627.213-1.387.32-1.16.427-.947.48-.76.533-.587.56-.44.56-.32.533-.213.48-.133.427-.067.32-.013h.213l.08.013h10.88V7.213H8.315l-.013-3.667-.027-.493.067-.453.147-.413.227-.373.333-.347.413-.307.507-.267.587-.24.68-.2.773-.16.853-.133.947-.08 1.027-.053L15.956 0l1.693.067zm-8.4 2.64l-.307.44-.107.547.107.547.307.453.44.293.547.12.547-.12.44-.293.307-.453.107-.547-.107-.547-.307-.44-.44-.293-.547-.12-.547.12zm17.453 5.267l.373.08.427.16.467.24.48.36.48.467.467.627.427.787.373.973.28 1.173.187 1.387.067 1.64-.08 1.64-.213 1.387-.32 1.147-.427.947-.48.76-.533.6-.56.44-.56.32-.533.213-.48.12-.427.067-.32.027-.213-.013h-10.96v1.093h7.787l.013 3.68.027.48-.067.453-.147.413-.227.387-.333.333-.413.32-.507.267-.587.227-.68.2-.773.173-.853.12-.947.093-1.027.053-1.12.013-1.693-.053-1.427-.187-1.2-.267-.973-.333-.787-.4-.6-.44-.453-.453-.333-.453-.213-.44-.133-.4-.053-.333-.027-.267.013-.173v-7.12l.067-.853.173-.72.28-.613.347-.507.4-.427.44-.32.467-.267.467-.187.44-.133.4-.08.347-.053.28-.027.173-.013h7.787l.92-.067.787-.187.667-.28.547-.373.44-.427.36-.467.267-.48.2-.48.133-.467.093-.427.053-.373.027-.28v-4.08h2.787l.187.013zm-8.626 19l-.307.44-.107.547.107.547.307.44.44.307.547.107.547-.107.44-.307.307-.44.107-.547-.107-.547-.307-.44-.44-.307-.547-.107-.547.107z"/>
    </symbol>
    <symbol id="react" viewBox="0 0 32 32">
      <path fill="var(--color17, #61dafb)" d="M16 13.148a2.852 2.852 0 0 0 0 5.704 2.852 2.852 0 0 0 0-5.704zm-7.989 8.525l-.629-.16C2.691 20.328.001 18.316.001 15.994s2.691-4.333 7.381-5.519l.629-.159.177.624a31.104 31.104 0 0 0 1.899 4.957l-.082-.186.135.284-.135.284a29.368 29.368 0 0 0-1.761 4.551l-.056.22zm-.922-9.74c-3.565 1.001-5.753 2.533-5.753 4.061 0 1.527 2.188 3.059 5.753 4.061a32.611 32.611 0 0 1 1.662-4.263l-.086.202a30.435 30.435 0 0 1-1.511-3.828l-.065-.234zm16.9 9.74l-.177-.625a30.782 30.782 0 0 0-1.9-4.954l.081.184-.135-.284.135-.284a29.456 29.456 0 0 0 1.762-4.55l.056-.221.177-.624.631.159c4.689 1.185 7.38 3.197 7.38 5.52s-2.691 4.333-7.38 5.519zm-.654-5.678a33.038 33.038 0 0 1 1.576 4.061c3.567-1.003 5.753-2.535 5.753-4.061 0-1.528-2.188-3.059-5.753-4.061a32.424 32.424 0 0 1-1.662 4.262l.086-.2zM7.08 11.927l-.177-.623C5.584 6.656 5.984 3.325 8 2.163c1.977-1.141 5.152.207 8.479 3.621l.453.465-.453.465a31.6 31.6 0 0 0-3.162 3.853l-.068.103-.18.257-.313.027a31.667 31.667 0 0 0-5.264.86l.218-.047zm2.528-8.84c-.357 0-.673.077-.94.231-1.325.764-1.56 3.42-.647 7.004a31.194 31.194 0 0 1 4.18-.658l.131-.01a33.328 33.328 0 0 1 2.756-3.414l-.02.022c-2.08-2.025-4.049-3.175-5.46-3.175zm12.785 27.149c-.001 0-.001 0 0 0-1.9 0-4.34-1.431-6.872-4.031l-.453-.465.453-.465a31.427 31.427 0 0 0 3.16-3.854l.068-.103.18-.257.312-.027a31.74 31.74 0 0 0 5.267-.858l-.218.046.629-.159.179.624c1.316 4.645.917 7.977-1.099 9.139a3.132 3.132 0 0 1-1.562.411h-.047.002zm-5.461-4.508c2.08 2.025 4.049 3.175 5.46 3.175h.001c.356 0 .673-.077.939-.231 1.325-.764 1.561-3.421.647-7.005a30.933 30.933 0 0 1-4.182.658l-.13.01a33.219 33.219 0 0 1-2.755 3.416l.02-.022zm7.988-13.801l-.629-.159c-1.453-.376-3.175-.664-4.939-.806l-.111-.007-.312-.027-.18-.257a31.57 31.57 0 0 0-3.237-3.966l.009.01-.453-.465.453-.465C18.846 2.372 22.02 1.024 24 2.164c2.016 1.163 2.416 4.493 1.099 9.14zm-5.253-2.274c1.523.139 2.969.364 4.312.668.915-3.584.679-6.24-.647-7.004-1.317-.761-3.793.405-6.4 2.944a33.376 33.376 0 0 1 2.666 3.289l.069.103zM9.608 30.236h-.046a3.153 3.153 0 0 1-1.577-.419l.015.008c-2.016-1.161-2.416-4.492-1.097-9.139l.176-.624.629.159c1.54.388 3.239.661 5.047.812l.313.027.179.257a31.521 31.521 0 0 0 3.239 3.967l-.01-.01.453.465-.453.465c-2.531 2.6-4.971 4.031-6.868 4.031zm-1.587-8.569c-.915 3.584-.679 6.241.647 7.005 1.316.751 3.791-.407 6.4-2.944a33.543 33.543 0 0 1-2.667-3.29l-.069-.103a33.315 33.315 0 0 1-4.534-.711l.224.043zm7.979.837c-1.097 0-2.225-.048-3.355-.141l-.313-.027-.18-.257a38.303 38.303 0 0 1-1.697-2.639l-.103-.19a36.12 36.12 0 0 1-1.45-2.728l-.105-.243-.133-.284.133-.284a38.537 38.537 0 0 1 1.658-3.161l-.103.191a40.4 40.4 0 0 1 1.8-2.829l.18-.257.313-.027a40.227 40.227 0 0 1 6.86.011l-.15-.011.312.027.179.257a39.103 39.103 0 0 1 3.252 5.56l.104.24.135.284-.135.284a39.328 39.328 0 0 1-3.439 5.925l.083-.125-.179.257-.312.027a41.083 41.083 0 0 1-3.356.141zm-2.929-1.445c1.973.148 3.885.148 5.86 0a37.57 37.57 0 0 0 2.827-4.836l.101-.228a37.891 37.891 0 0 0-3.012-5.19l.083.126a39.304 39.304 0 0 0-5.992.008l.134-.008a36.95 36.95 0 0 0-2.83 4.84l-.099.224a38.502 38.502 0 0 0 3.014 5.193l-.085-.13z"/>
    </symbol>
    <symbol id="telegram" viewBox="0 0 32 32">
      <path fill="var(--color20, #2ca5e0)" d="M31.88 5.053l-4.813 22.733c-.333 1.613-1.307 2-2.667 1.253l-7.333-5.427-3.547 3.427c-.4.4-.733.747-1.467.747-.96 0-.8-.36-1.12-1.267L8.4 18.266l-7.267-2.267c-1.573-.467-1.587-1.547.347-2.333L29.827 2.733c1.293-.573 2.533.32 2.053 2.32z"/>
    </symbol>
    <symbol id="typescript" viewBox="0 0 32 32">
      <path fill="var(--color21, #007acc)" d="M0 16v16h32V0H0zm25.788-1.275a3.982 3.982 0 0 1 2.001 1.153c.295.315.732.888.767 1.027.011.04-1.381.973-2.224 1.497-.031.02-.153-.112-.289-.315-.413-.6-.844-.859-1.504-.904-.971-.067-1.595.441-1.589 1.289l-.001.05c0 .201.051.391.14.557l-.003-.006c.213.441.611.707 1.853 1.244 2.292.987 3.272 1.636 3.881 2.56.68 1.031.833 2.677.371 3.901-.507 1.331-1.767 2.235-3.54 2.533-.548.097-1.848.083-2.437-.024-1.285-.229-2.504-.864-3.256-1.697-.295-.324-.869-1.173-.833-1.233.015-.021.147-.103.293-.188.144-.081.681-.392 1.189-.687l.92-.533.193.285c.269.411.857.975 1.213 1.163 1.021.539 2.423.463 3.113-.157a1.175 1.175 0 0 0 .417-.962v.003c0-.371-.047-.533-.24-.813-.248-.355-.756-.653-2.199-1.28-1.651-.711-2.361-1.152-3.012-1.853a4.215 4.215 0 0 1-.871-1.57l-.008-.03c-.121-.452-.152-1.585-.056-2.041.34-1.596 1.544-2.707 3.281-3.037.564-.107 1.875-.067 2.428.071zm-7.512 1.336l.011 1.311H14.12v11.835h-2.947V17.372H7.01v-1.285c0-.712.015-1.307.035-1.32.016-.021 2.551-.032 5.623-.027l5.593.016z"/>
    </symbol>
    <symbol id="express" viewBox="0 0 32 32">
      <path d="M32 24.784a2.038 2.038 0 0 1-2.521-.949l-.005-.011-4.6-6.361-.667-.889-5.337 7.259a1.957 1.957 0 0 1-2.416.939l.014.004 6.877-9.227-6.397-8.335a2.125 2.125 0 0 1 2.528.879l.005.009 4.768 6.44 4.795-6.413a1.917 1.917 0 0 1 2.397-.886l-.013-.005-2.483 3.295-3.363 4.377a.885.885 0 0 0-.001 1.325l.001.001 6.405 8.549zM.003 15.435l.56-2.767c1.539-5.471 7.811-7.747 12.125-4.36 2.527 1.985 3.157 4.796 3.033 7.964H1.488c-.231 5.657 3.852 9.073 9.072 7.328a5.464 5.464 0 0 0 3.435-3.797l.008-.037c.276-.888.731-1.04 1.565-.784a7.241 7.241 0 0 1-3.42 5.258l-.032.018a8.257 8.257 0 0 1-4.013 1.026 8.332 8.332 0 0 1-5.732-2.274l.004.004A8.722 8.722 0 0 1 .19 17.901l-.002-.031c0-.313-.107-.607-.179-.888C.003 16.541 0 16.02 0 15.498v-.065.003zm1.502-.382h12.872c-.08-4.101-2.668-7.011-6.12-7.037-3.843-.053-6.592 2.792-6.761 7.019z"/>
    </symbol>
    <symbol id="phone" viewBox="0 0 32 32">
      <path d="M22 20c-2 2-2 4-4 4s-4-2-6-4-4-4-4-6 2-2 4-4-4-8-6-8-6 6-6 6c0 4 4.109 12.109 8 16s12 8 16 8c0 0 6-4 6-6s-6-8-8-6z"/>
    </symbol>
    <symbol id="cross" viewBox="0 0 32 32">
      <path d="M31.708 25.708L22 16l9.708-9.708a1 1 0 0 0 0-1.414L27.122.292a1 1 0 0 0-1.414-.001L16 9.999 6.292.291a.998.998 0 0 0-1.414.001L.292 4.878a1 1 0 0 0 0 1.414L10 16 .292 25.708a.999.999 0 0 0 0 1.414l4.586 4.586a1 1 0 0 0 1.414 0L16 22l9.708 9.708a1 1 0 0 0 1.414 0l4.586-4.586a.999.999 0 0 0 0-1.414z"/>
    </symbol>
    <symbol id="paragraph-right" viewBox="0 0 32 32">
      <path d="M0 2h32v4H0zm12 6h20v4H12zm0 12h20v4H12zM0 14h32v4H0zm0 12h32v4H0z"/>
    </symbol>
    <symbol id="map-pin" viewBox="0 0 320 512">
      <path d="M192 284.4C256.1 269.9 304 212.5 304 144 304 64.5 239.5 0 160 0S16 64.5 16 144c0 68.5 47.9 125.9 112 140.4L128 480c0 17.7 14.3 32 32 32s32-14.3 32-32l0-195.6zM168 96c-30.9 0-56 25.1-56 56 0 13.3-10.7 24-24 24s-24-10.7-24-24c0-57.4 46.6-104 104-104 13.3 0 24 10.7 24 24s-10.7 24-24 24z"/>
    </symbol>
  </defs>
</svg>